<?xml version="1.0" encoding="UTF-8"?>
<svg id="Layer_1" xmlns="http://www.w3.org/2000/svg" version="1.1" viewBox="0 0 1080 1080">
  <!-- Generator: Adobe Illustrator 29.2.1, SVG Export Plug-In . SVG Version: 2.1.0 Build 116)  -->
  <defs>
    <style>
      .st0 {
        fill: #2c2f44;
      }
    </style>
  </defs>
  <path class="st0" d="M1037.8,539.9v-5h-.4c-2.4-13.6-14.2-23.9-28.4-23.9s-26,10.3-28.4,23.9h-378c-31,0-56.2-24.4-57.6-55.1V99.3c13.6-2.4,23.9-14.2,23.9-28.4s-10.3-26-23.9-28.4v-.4h-10v.4c-13.6,2.4-23.9,14.2-23.9,28.4s10.3,26,23.9,28.4v380.6c-1.4,30.6-26.7,55-57.6,55H99.4c-2.4-13.6-14.2-23.9-28.4-23.9s-26,10.3-28.4,23.9h-.4v10h.4c2.4,13.6,14.2,23.9,28.4,23.9s26-10.3,28.4-23.9h378c31,0,56.2,24.4,57.6,55.1v380.6c-13.6,2.4-23.9,14.2-23.9,28.4s10.3,26,23.9,28.4v.4h10v-.4c13.6-2.4,23.9-14.2,23.9-28.4s-10.3-26-23.9-28.4v-380.6c1.4-30.6,26.7-55,57.6-55h378c2.4,13.6,14.2,23.9,28.4,23.9s26-10.3,28.4-23.9h.4v-5h0Z"/>
</svg>